PathFileType	4	(X/Y/Z)	E:\Qualisys_Data\Carbon_Farble_Plate\Data\Amateur_Runner\S1\T3\S1T3V12_c3d.trc
DataRate	CameraRate	NumFrames	NumMarkers	Units	OrigDataRate	OrigDataStartFrame	OrigNumFrames
200.000000	200.000000	4	39	mm	200.000000	40	322
Frame#	Time	LSHO			RSHO			LICST			RICST			LASIS			LHEEL			RASIS			LTROC			RTROC			SACR			LTH1			LSK4			LTH2			LTH3			RHM5			LSK2			LTH4			RTH1			LTOE			RTH2			RTH3			RTH4			LLEP			RLEP			LSK1			LSK3			RSK1			LHM5			RSK2			LFT1			RSK3			RSK4			LLME			RLME			RTOE			RHEEL			RFT1			RFT2			LFT2			
		X1	Y1	Z1	X2	Y2	Z2	X3	Y3	Z3	X4	Y4	Z4	X5	Y5	Z5	X6	Y6	Z6	X7	Y7	Z7	X8	Y8	Z8	X9	Y9	Z9	X10	Y10	Z10	X11	Y11	Z11	X12	Y12	Z12	X13	Y13	Z13	X14	Y14	Z14	X15	Y15	Z15	X16	Y16	Z16	X17	Y17	Z17	X18	Y18	Z18	X19	Y19	Z19	X20	Y20	Z20	X21	Y21	Z21	X22	Y22	Z22	X23	Y23	Z23	X24	Y24	Z24	X25	Y25	Z25	X26	Y26	Z26	X27	Y27	Z27	X28	Y28	Z28	X29	Y29	Z29	X30	Y30	Z30	X31	Y31	Z31	X32	Y32	Z32	X33	Y33	Z33	X34	Y34	Z34	X35	Y35	Z35	X36	Y36	Z36	X37	Y37	Z37	X38	Y38	Z38	X39	Y39	Z39	

41	0.2	-1854.234252929688	1489.65869140625	-495.2469482421875	-1876.782348632812	1446.088500976562	-167.2366943359375	-1917.115478515625	1003.025939941406	-499.194091796875	-1920.033569335938	1037.644897460938	-198.9514770507812	-1869.366333007812	967.883544921875	-469.697998046875	-2190.991455078125	379.0719909667969	-409.4898986816406	-1879.562744140625	989.843994140625	-203.5153350830078	-1971.54736328125	876.876708984375	-509.8143005371094	-1988.674194335938	899.8658447265625	-173.6790466308594	-2033.500610351562	1035.97216796875	-344.9208984375	-1794.806274414062	774.6322021484375	-489.6401672363281	-2047.385375976562	443.2751159667969	-441.2290649414062	-1867.163696289062	739.0155029296875	-519.5150146484375	-1752.763671875	679.6332397460938	-483.5745239257812	-1947.916137695312	71.12512969970703	-227.1477203369141	-1956.597534179688	477.4059448242188	-479.6529846191406	-1829.1767578125	645.8084716796875	-503.0101928710938	-1849.135864257812	772.9136962890625	-190.0733184814453	-2073.510986328125	158.2528228759766	-422.9186401367188	-1926.466430664062	764.3207397460938	-168.1799621582031	-1842.976318359375	672.2091064453125	-201.940673828125	-1922.732543945312	665.3063354492188	-187.5574951171875	-1757.6103515625	520.597900390625	-472.7632751464844	-1876.146850585938	501.158935546875	-234.3676300048828	-1927.832275390625	399.9310607910156	-471.6944580078125	-2024.904663085938	369.9873657226562	-465.8962707519531	-1943.876831054688	319.8470764160156	-226.6390686035156	-2124.649169921875	211.0856781005859	-479.1701965332031	-2018.325439453125	353.0360107421875	-228.3074340820312	-2211.16357421875	355.5043334960938	-380.3845825195312	-1982.354736328125	228.2213745117188	-243.4233245849609	-2054.494384765625	262.6459045410156	-255.3710784912109	-2140.974365234375	350.1880798339844	-458.8190307617188	-2067.8056640625	130.8552093505859	-243.3692474365234	-1891.579467773438	73.6704330444336	-299.0863342285156	-2141.8154296875	102.9062576293945	-284.2776184082031	-2137.340087890625	73.3307876586914	-313.4292297363281	-2144.2890625	78.24250793457031	-262.0935363769531	-2216.826416015625	360.5633544921875	-432.6573791503906
42	0.205	-1840.051635742188	1492.635620117188	-495.9974975585938	-1858.792114257812	1449.84716796875	-168.1177062988281	-1901.737548828125	1006.364624023438	-498.4591674804688	-1903.743286132812	1038.773559570312	-198.2637634277344	-1853.401245117188	971.4989624023438	-470.1189575195312	-2163.71240234375	372.1346435546875	-408.3047180175781	-1863.2158203125	991.1454467773438	-202.5644683837891	-1955.852294921875	880.8534545898438	-510.0379333496094	-1973.083129882812	902.30029296875	-173.2111206054688	-2017.146728515625	1038.878051757812	-344.0765075683594	-1776.905883789062	780.6417846679688	-488.5746459960938	-2022.380737304688	440.18408203125	-440.365234375	-1849.590087890625	743.0150756835938	-519.3922119140625	-1733.420532226562	686.5133056640625	-482.31396484375	-1947.150512695312	70.93682098388672	-227.4067230224609	-1932.586791992188	477.0148010253906	-478.5688781738281	-1809.91796875	651.1675415039062	-502.6211242675781	-1837.643920898438	773.4619750976562	-190.548095703125	-2038.893920898438	154.6364288330078	-422.8158264160156	-1915.529663085938	766.187744140625	-168.8759155273438	-1832.329833984375	672.6014404296875	-203.3302764892578	-1912.546752929688	667.389892578125	-187.7331085205078	-1734.285888671875	527.1422119140625	-471.2640075683594	-1870.51416015625	500.9275817871094	-234.9394226074219	-1901.367553710938	401.7960205078125	-470.4535217285156	-1997.6201171875	368.3220520019531	-465.8878173828125	-1939.770751953125	321.0450744628906	-226.8843383789062	-2092.14892578125	205.4645843505859	-478.9453125	-2014.574340820312	354.6593627929688	-227.8479766845703	-2184.1767578125	346.8945007324219	-381.0489196777344	-1980.47412109375	230.3907623291016	-243.7196502685547	-2052.56005859375	265.2989501953125	-255.3520812988281	-2112.77978515625	343.5309448242188	-458.5021362304688	-2066.847412109375	132.2447509765625	-242.8985900878906	-1891.17236328125	72.78469848632812	-299.0010986328125	-2141.824462890625	104.3120498657227	-284.20068359375	-2136.77978515625	74.88691711425781	-313.3072814941406	-2143.93798828125	78.99040222167969	-260.9812622070312	-2189.151123046875	350.6245422363281	-431.7430725097656
43	0.21	-1826.105834960938	1496.141235351562	-497.1241760253906	-1840.6435546875	1453.86865234375	-168.7051696777344	-1884.324584960938	1009.648620605469	-497.0088806152344	-1887.184692382812	1041.312622070312	-197.6653442382812	-1836.23583984375	975.1408081054688	-468.3421325683594	-2137.67919921875	362.4832153320312	-409.0191650390625	-1846.521118164062	992.017578125	-202.4436187744141	-1939.42919921875	885.0750122070312	-510.2324523925781	-1957.71240234375	904.6931762695312	-173.0353546142578	-2000.711181640625	1041.587524414062	-342.7810668945312	-1760.795532226562	786.6602783203125	-489.3480529785156	-1997.187255859375	436.9080810546875	-439.69287109375	-1831.380004882812	748.1116943359375	-519.0195922851562	-1714.419311523438	693.37255859375	-481.1814575195312	-1947.011474609375	70.66020965576172	-227.4577026367188	-1909.90234375	479.2942199707031	-476.9887390136719	-1790.066040039062	656.6787719726562	-501.8943176269531	-1824.438598632812	774.1309814453125	-190.8133544921875	-2003.654418945312	151.0637664794922	-422.55859375	-1901.588500976562	767.297119140625	-168.6245422363281	-1822.156127929688	672.9758911132812	-204.6923980712891	-1901.84716796875	669.2634887695312	-187.8836669921875	-1712.607177734375	533.8884887695312	-470.5130920410156	-1864.830932617188	501.509033203125	-236.5881042480469	-1875.46240234375	403.0338745117188	-469.941650390625	-1970.118408203125	365.966796875	-465.3872680664062	-1936.583740234375	322.1278991699219	-227.1651916503906	-2057.9375	199.6690216064453	-478.3904724121094	-2010.857788085938	356.7541198730469	-227.5159912109375	-2156.100830078125	338.2970275878906	-381.1623229980469	-1978.484497070312	231.8652954101562	-243.517578125	-2049.34619140625	267.5380859375	-254.6885375976562	-2086.06103515625	338.8585815429688	-458.0733337402344	-2065.249755859375	135.1188507080078	-242.3523712158203	-1890.806884765625	72.80146026611328	-298.8206787109375	-2148.060546875	105.7939910888672	-285.1338806152344	-2136.20654296875	76.66796875	-313.0997009277344	-2143.312255859375	79.76876068115234	-260.4793395996094	-2160.95068359375	340.2631225585938	-431.3579711914062
44	0.215	-1812.035522460938	1499.258178710938	-497.8987121582031	-1821.921264648438	1457.38134765625	-169.433837890625	-1868.798095703125	1013.804443359375	-497.0893859863281	-1870.406127929688	1043.165771484375	-196.1179504394531	-1819.858032226562	979.0423583984376	-467.305419921875	-2110.545166015625	353.1029663085938	-409.2522888183594	-1829.990600585938	993.3402709960938	-201.6234893798828	-1922.25537109375	889.306640625	-510.2347106933594	-1942.85009765625	907.7163696289062	-173.2959136962891	-1984.116333007812	1044.45703125	-341.8327026367188	-1743.12646484375	793.273193359375	-488.3129272460938	-1972.237182617188	433.4122009277344	-438.7451171875	-1812.870971679688	753.201416015625	-518.64111328125	-1695.529663085938	700.1934814453125	-480.38916015625	-1946.756713867188	70.70489501953125	-227.4277801513672	-1887.044799804688	479.2406005859375	-476.1813659667969	-1770.068237304688	662.4505004882812	-501.2135314941406	-1811.751586914062	775.2904052734375	-192.0533142089844	-1968.830932617188	147.0723571777344	-422.6729736328125	-1888.81640625	769.916259765625	-168.8750305175781	-1810.744018554688	673.7034301757812	-205.6464385986328	-1890.9814453125	671.48046875	-187.8380889892578	-1690.98193359375	540.6871337890625	-469.6220092773438	-1860.124145507812	502.821533203125	-237.5460205078125	-1849.464599609375	404.5399475097656	-469.4557800292969	-1942.914306640625	363.8049926757812	-464.9790649414062	-1933.615966796875	324.82275390625	-227.6069488525391	-2024.5771484375	193.6928100585938	-478.1218872070312	-2007.469604492188	359.6141662597656	-227.7689208984375	-2127.28564453125	328.0599975585938	-380.1288452148438	-1975.351196289062	234.5211181640625	-243.8969268798828	-2047.566162109375	270.9070739746094	-254.9643096923828	-2056.174560546875	329.5594482421875	-457.6902770996094	-2063.911376953125	137.2083435058594	-241.6282958984375	-1889.574584960938	72.76099395751953	-298.5320434570312	-2147.0966796875	106.8216171264648	-285.1344299316406	-2134.64892578125	77.30459594726562	-312.8895568847656	-2142.63037109375	81.6778335571289	-261.3139343261719	-2133.303466796875	330.3132019042969	-431.1644897460938
